<svg width="105" height="33" viewBox="0 0 105 33" fill="none" xmlns="http://www.w3.org/2000/svg">
<path fill-rule="evenodd" clip-rule="evenodd" d="M13.2184 0.528564H14.1469C17.371 0.595015 20.5423 1.82277 22.8201 3.99626C21.979 4.80929 21.1206 5.58909 20.2971 6.40193C19.0181 5.30707 17.4761 4.46082 15.794 4.16219C13.3061 3.6644 10.6252 4.11235 8.54018 5.45639C6.26239 6.86649 4.72041 9.25574 4.38749 11.8107C4.01969 14.3327 4.77304 16.9874 6.50759 18.9451C8.17218 20.8532 10.7129 22.0477 13.341 22.1307C15.794 22.2635 18.3522 21.5499 20.1394 19.924C21.5411 18.7791 22.1894 17.0372 22.3997 15.3449C19.4911 15.3449 16.5826 15.3613 13.6739 15.3449V11.927H25.9214C26.5522 15.5937 25.6411 19.7249 22.6975 22.3463C20.7351 24.2046 18.0193 25.2996 15.2509 25.5154C12.5701 25.7642 9.80167 25.283 7.41883 24.0552C4.56272 22.6119 2.28493 20.1728 1.16359 17.3026C0.112412 14.6645 0.0948671 11.678 1.07607 9.02337C1.96956 6.60108 3.68678 4.46082 5.89439 2.96766C8.01449 1.49091 10.5901 0.677881 13.2184 0.528564Z" fill="#A2BDAA"/>
<path fill-rule="evenodd" clip-rule="evenodd" d="M83.4797 1.39142H87.2293V25.084C85.9852 25.084 84.7237 25.1004 83.4797 25.0674C83.4971 17.1865 83.4797 9.28895 83.4797 1.39142Z" fill="#A2BDAA"/>
<path fill-rule="evenodd" clip-rule="evenodd" d="M34.2619 9.60419C36.5748 9.18927 39.0804 9.65383 40.9902 10.9646C42.7248 12.126 43.9339 13.9512 44.3019 15.9421C44.7749 18.2483 44.179 20.7701 42.6022 22.5953C40.9027 24.6359 38.1168 25.7309 35.4008 25.565C32.9127 25.4323 30.4948 24.2544 29.023 22.3297C27.3586 20.206 26.9555 17.286 27.8665 14.7972C28.7778 12.126 31.3534 10.0854 34.2619 9.60419ZM34.7876 12.7564C33.8415 12.9888 32.9653 13.503 32.3346 14.2332C30.6349 16.1577 30.7402 19.2935 32.6149 21.0853C33.6838 22.1141 35.2958 22.5953 36.7851 22.3131C38.1692 22.0809 39.3783 21.2016 40.0441 20.0401C41.2005 18.0658 40.8676 15.3449 39.098 13.8019C37.9591 12.8063 36.2945 12.3916 34.7876 12.7564Z" fill="#A2BDAA"/>
<path fill-rule="evenodd" clip-rule="evenodd" d="M52.8345 9.6042C55.4803 9.12303 58.3713 9.81977 60.3513 11.5785C63.5754 14.3161 63.9256 19.4428 61.1748 22.5953C59.5102 24.5862 56.812 25.6813 54.1487 25.565C51.6081 25.4987 49.1025 24.3042 47.5956 22.3297C45.8961 20.1562 45.5281 17.1699 46.4918 14.6313C47.4554 12.0431 49.9786 10.0688 52.8345 9.6042ZM53.3602 12.7565C52.4141 12.9888 51.538 13.503 50.9072 14.2166C49.2253 16.1081 49.2953 19.1941 51.1 21.0025C52.1687 22.0809 53.8333 22.6119 55.3753 22.3131C56.7418 22.0643 57.9684 21.2016 58.6343 20.0401C59.7732 18.0492 59.4402 15.3282 57.6531 13.7853C56.5142 12.7897 54.8496 12.3916 53.3602 12.7565Z" fill="#A2BDAA"/>
<path fill-rule="evenodd" clip-rule="evenodd" d="M68.5863 10.5664C70.6014 9.37183 73.2821 9.03997 75.4548 10.0688C76.1382 10.3508 76.6987 10.832 77.242 11.3131L77.2595 9.93607L80.7988 9.95248V24.5862C80.7812 26.7928 80.1856 29.1322 78.5035 30.7416C76.6636 32.5168 73.8428 33.0644 71.3021 32.6994C68.5863 32.3179 66.2208 30.443 65.1697 28.0704C66.2208 27.5892 67.3248 27.2077 68.4111 26.7597C69.0243 28.1202 70.2685 29.2815 71.8278 29.5471C73.3871 29.8125 75.1918 29.4474 76.2081 28.2197C77.2944 26.9587 77.2944 25.2334 77.242 23.6904C76.436 24.4369 75.5072 25.1004 74.3859 25.3494C71.9504 25.9965 69.2697 25.2001 67.3948 23.6405C65.5026 22.0809 64.3812 19.6752 64.4863 17.286C64.5389 14.5815 66.1509 11.9767 68.5863 10.5664ZM72.2133 12.6902C71.1444 12.8561 70.1457 13.4202 69.4623 14.2C67.8154 16.0582 67.8154 19.0281 69.4798 20.8531C70.4261 21.9316 71.9504 22.5289 73.4222 22.3795C74.8065 22.2468 76.0855 21.4172 76.7689 20.2725C77.9253 18.3312 77.7326 15.6931 76.173 14.0008C75.2094 12.9556 73.6676 12.4412 72.2133 12.6902Z" fill="#A2BDAA"/>
<path fill-rule="evenodd" clip-rule="evenodd" d="M91.7323 11.4126C93.8348 9.55437 97.0763 8.92388 99.7747 9.90284C102.333 10.8154 103.962 13.1215 104.786 15.4942C100.984 16.9873 97.1989 18.4639 93.3969 19.9573C93.9226 20.903 94.7285 21.7657 95.8148 22.1141C97.3392 22.6283 99.1613 22.446 100.441 21.4836C100.949 21.1186 101.352 20.6374 101.737 20.1728L104.628 21.9978C103.261 23.9391 100.966 25.2996 98.4957 25.5154C95.7622 25.8306 92.8536 24.835 91.084 22.8109C88.1755 19.6254 88.4558 14.2828 91.7323 11.4126ZM93.6072 14.482C93.0113 15.295 92.7661 16.2904 92.7837 17.2694C95.3242 16.274 97.8647 15.2784 100.405 14.2664C99.9848 13.3373 98.9687 12.7731 97.9349 12.6238C96.2703 12.3417 94.5358 13.1878 93.6072 14.482Z" fill="#A2BDAA"/>
</svg>
